Coordinates
version=1
nRows=10
nColumns=34
inDegrees=yes

Units are S.I. units (second, meters, Newtons, ...)
If the header above contains a line with 'inDegrees', this indicates whether rotational values are in degrees (yes) or radians (no).

endheader
time	pelvis_tilt	pelvis_list	pelvis_rotation	pelvis_tx	pelvis_ty	pelvis_tz	hip_flexion_r	hip_adduction_r	hip_rotation_r	knee_angle_r	ankle_angle_r	subtalar_angle_r	mtp_angle_r	hip_flexion_l	hip_adduction_l	hip_rotation_l	knee_angle_l	ankle_angle_l	subtalar_angle_l	mtp_angle_l	lumbar_extension	lumbar_bending	lumbar_rotation	arm_flex_r	arm_add_r	arm_rot_r	elbow_flex_r	pro_sup_r	arm_flex_l	arm_add_l	arm_rot_l	elbow_flex_l	pro_sup_l
      3.31666670	    -87.10827837	     90.00000018	    -20.31966324	     -3.29906319	      0.71348792	      0.29545406	    119.99999986	    -50.00000023	    -27.01500861	      0.00000000	     50.00000000	    -35.00000000	      0.00000000	     66.54579270	    -36.41016687	    -39.99999995	    105.05044753	    -50.00000000	     35.00000000	      0.00000000	     87.77261078	     90.00000018	     87.77260375	    -56.11099118	    199.90951920	    145.27396212	     21.27112408	      0.00000000	    128.98463170	    -31.87231424	    572.95779513	     11.97759220	     31.65379734
      3.33333330	    -87.04971325	     90.00000018	    -20.26109865	     -3.31092828	      0.71796868	      0.30621873	    119.99999986	    -50.00000023	    -26.76018153	      0.00000000	     50.00000000	    -35.00000000	      0.00000000	     68.83857981	    -34.68899218	    -39.99999995	    104.26417558	    -50.00000000	     35.00000000	      0.00000000	     88.13008818	     90.00000018	     88.13008115	    -57.71101416	    200.12427997	    145.32677705	     20.61714585	      0.00000000	    131.12275668	    -30.79515016	    572.95779513	     11.13374161	     31.95010069
      3.35000000	    -87.11330346	     90.00000018	    -20.32510677	     -3.33052016	      0.72122322	      0.31342206	    119.99999986	    -50.00000023	    -26.94922157	      0.00000000	     50.00000000	    -35.00000000	      0.00000000	     71.34238611	    -28.96689149	    -39.99999995	    103.55898909	    -50.00000000	     35.00000000	      0.00000000	     88.41748554	     90.00000018	     88.41747851	    -60.36500716	    200.50943369	    145.19385677	     19.87637789	      0.00000000	    131.87612744	    -30.05464944	    572.95779513	     10.80221733	     32.34152250
      3.36666670	    -86.96870502	     90.00000018	    -20.18050869	     -3.34719018	      0.72128267	      0.31539083	    119.99999986	    -50.00000023	    -27.39705491	      0.00000000	     50.00000000	    -35.00000000	      0.00000000	     72.64964017	    -21.49283646	    -39.99999995	    102.55938942	    -50.00000000	     35.00000000	      0.00000000	     88.56109614	     90.00000018	     88.56108910	    -62.87510096	    200.64926354	    144.92611628	     18.98650697	      0.00000000	    131.55680766	    -29.43340689	    572.95779513	     10.72519892	     32.58083850
      3.38333330	    -86.46869048	     90.00000018	    -19.68049460	     -3.35169529	      0.71773640	      0.31460640	    119.99999986	    -50.00000023	    -27.80415308	      0.00000000	     50.00000000	    -35.00000000	      0.00000000	     73.55418391	    -17.04142827	    -39.99999995	    102.18866977	    -50.00000000	     35.00000000	      0.00000000	     88.61825365	     90.00000018	     88.61824659	    -66.34230525	    200.66269161	    144.41669343	     17.54412765	      0.00000000	    130.30553594	    -28.70899004	    572.95779513	     10.82475511	     32.85120704
      3.40000000	    -86.15850568	     90.00000018	    -19.37030985	     -3.34495127	      0.71231731	      0.31355039	    119.99999986	    -50.00000023	    -27.54108777	      0.00000000	     50.00000000	    -35.00000000	      0.00000000	     74.15499875	    -18.09444748	    -39.99999995	    101.72436034	    -50.00000000	     35.00000000	      0.00000000	     88.72000762	     90.00000018	     88.72000056	    -66.56435786	    200.60774341	    144.36916602	     17.42270839	      0.00000000	    130.21667937	    -28.68866418	    572.95779513	     10.82715457	     32.87344306
      3.41666670	    -86.31380834	     90.00000018	    -19.52561471	     -3.33318644	      0.70792606	      0.31276400	    119.99999986	    -50.00000023	    -25.95911029	      0.00000000	     50.00000000	    -35.00000000	      0.00000000	     74.12795917	    -23.84826732	    -39.99999995	    103.51099228	    -50.00000000	     32.26476569	      0.00000000	     88.98055202	     90.00000018	     88.98054493	    -66.56776172	    200.75549549	    142.25400952	     15.73157393	      0.00000000	    130.20434098	    -28.18716794	    572.95779513	     10.23620037	     33.82516431
      3.43333330	    -86.37764787	     90.00000018	    -19.58945499	     -3.31923679	      0.70489267	      0.31260416	    119.99999986	    -50.00000023	    -25.21443225	      0.00000000	     50.00000000	    -35.00000000	      0.00000000	     73.26870502	    -27.90397129	    -39.99999995	    104.99596816	    -50.00000000	     28.22864373	      0.00000000	     89.14993139	     90.00000018	     89.14992429	    -65.60870864	    200.16015829	    141.64544963	     15.61389569	      0.00000000	    131.14940901	    -27.52725655	    572.95779513	      9.53448240	     34.08586315
      3.45000000	    -86.25248731	     90.00000018	    -19.46429471	     -3.30736505	      0.70270234	      0.31400186	    119.99999986	    -50.00000023	    -26.81772944	      0.00000000	     50.00000000	    -35.00000000	      0.00000000	     71.28117637	    -29.05160765	    -39.99999995	    104.58060152	    -50.00000000	     26.26738206	      0.00000000	     89.10740683	     90.00000018	     89.10739972	    -65.34781083	    200.18930652	    141.42472702	     15.63051719	      0.00000000	    130.94361665	    -27.71476197	    572.95779513	      9.60433685	     34.19460856
      3.46666670	    -85.83431238	     90.00000018	    -19.04612063	     -3.30285530	      0.69875434	      0.31722535	    119.99999986	    -50.00000023	    -27.89446519	      0.00000000	     50.00000000	    -35.00000000	      0.00000000	     69.02108844	    -30.25650375	    -39.99999995	    105.97463683	    -50.00000000	     22.11458845	      0.00000000	     89.04049182	     90.00000018	     89.04048472	    -64.95437228	    199.85917046	    140.89258208	     15.83968879	      0.00000000	    130.36063032	    -27.68318412	    572.95779513	      9.26322840	     34.49952187
